<?xml version="1.0" encoding="UTF-8" standalone="no"?>
<!-- Generator: Fusion 360, Shaper Origin Export Add-In, Version 1.6.10  -->

<svg
   shaper:fusionaddin="version:1.6.10"
   width="10cm"
   height="10cm"
   version="1.1"
   x="0cm"
   y="0cm"
   viewBox="0 0 10 10"
   enable-background="new 0 0 10 10"
   xml:space="preserve"
   id="svg44"
   sodipodi:docname="Deckel.svg"
   inkscape:version="1.1 (c68e22c387, 2021-05-23)"
   xmlns:inkscape="http://www.inkscape.org/namespaces/inkscape"
   xmlns:sodipodi="http://sodipodi.sourceforge.net/DTD/sodipodi-0.dtd"
   xmlns="http://www.w3.org/2000/svg"
   xmlns:svg="http://www.w3.org/2000/svg"
   xmlns:shaper="http://www.shapertools.com/namespaces/shaper"><defs
     id="defs48" /><sodipodi:namedview
     id="namedview46"
     pagecolor="#ffffff"
     bordercolor="#666666"
     borderopacity="1.0"
     inkscape:pageshadow="2"
     inkscape:pageopacity="0.0"
     inkscape:pagecheckerboard="0"
     inkscape:document-units="cm"
     showgrid="false"
     inkscape:zoom="1"
     inkscape:cx="169.5"
     inkscape:cy="261"
     inkscape:window-width="1920"
     inkscape:window-height="1002"
     inkscape:window-x="-8"
     inkscape:window-y="-8"
     inkscape:window-maximized="1"
     inkscape:current-layer="svg44" /><path
     d="M5,-5 L-5,-5 -5,5 5,5 5,-5z"
     transform="matrix(1,0,0,-1,5,5)"
     fill="rgb(0,0,0)"
     shaper:cutDepth="0.003"
     stroke-linecap="round"
     stroke-linejoin="round"
     id="path2"
     style="fill:none;stroke:#ff0000;stroke-opacity:1;stroke-width:0.00003528;stroke-miterlimit:4;stroke-dasharray:none" /><path
     d="M-3,-4.8 L-3,-4.5 -4,-4.5 -4,-4.8 -3,-4.8z"
     transform="matrix(1,0,0,-1,5,5)"
     fill="rgb(255,255,255)"
     stroke="rgb(0,0,0)"
     stroke-width="0.0010cm"
     stroke-linecap="round"
     stroke-linejoin="round"
     shaper:cutDepth="0.003"
     id="path4"
     style="fill:none;stroke:#ff0000;stroke-opacity:1;stroke-width:0.00003528;stroke-miterlimit:4;stroke-dasharray:none" /><path
     d="M-1.25,-4.8 L-1.25,-4.5 -2.25,-4.5 -2.25,-4.8 -1.25,-4.8z"
     transform="matrix(1,0,0,-1,5,5)"
     fill="rgb(255,255,255)"
     stroke="rgb(0,0,0)"
     stroke-width="0.0010cm"
     stroke-linecap="round"
     stroke-linejoin="round"
     shaper:cutDepth="0.003"
     id="path6"
     style="fill:none;stroke:#ff0000;stroke-opacity:1;stroke-width:0.00003528;stroke-miterlimit:4;stroke-dasharray:none" /><path
     d="M0.5,-4.8 L0.5,-4.5 -0.5,-4.5 -0.5,-4.8 0.5,-4.8z"
     transform="matrix(1,0,0,-1,5,5)"
     fill="rgb(255,255,255)"
     stroke="rgb(0,0,0)"
     stroke-width="0.0010cm"
     stroke-linecap="round"
     stroke-linejoin="round"
     shaper:cutDepth="0.003"
     id="path8"
     style="fill:none;stroke:#ff0000;stroke-opacity:1;stroke-width:0.00003528;stroke-miterlimit:4;stroke-dasharray:none" /><path
     d="M4,-4.8 L4,-4.5 3,-4.5 3,-4.8 4,-4.8z"
     transform="matrix(1,0,0,-1,5,5)"
     fill="rgb(255,255,255)"
     stroke="rgb(0,0,0)"
     stroke-width="0.0010cm"
     stroke-linecap="round"
     stroke-linejoin="round"
     shaper:cutDepth="0.003"
     id="path10"
     style="fill:none;stroke:#ff0000;stroke-opacity:1;stroke-width:0.00003528;stroke-miterlimit:4;stroke-dasharray:none" /><path
     d="M2.25,-4.5 L1.25,-4.5 1.25,-4.8 2.25,-4.8 2.25,-4.5z"
     transform="matrix(1,0,0,-1,5,5)"
     fill="rgb(255,255,255)"
     stroke="rgb(0,0,0)"
     stroke-width="0.0010cm"
     stroke-linecap="round"
     stroke-linejoin="round"
     shaper:cutDepth="0.003"
     id="path12"
     style="fill:none;stroke:#ff0000;stroke-opacity:1;stroke-width:0.00003528;stroke-miterlimit:4;stroke-dasharray:none" /><path
     d="M-4.8,3 L-4.5,3 -4.5,4 -4.8,4 -4.8,3z"
     transform="matrix(1,0,0,-1,5,5)"
     fill="rgb(255,255,255)"
     stroke="rgb(0,0,0)"
     stroke-width="0.0010cm"
     stroke-linecap="round"
     stroke-linejoin="round"
     shaper:cutDepth="0.003"
     id="path14"
     style="fill:none;stroke:#ff0000;stroke-opacity:1;stroke-width:0.00003528;stroke-miterlimit:4;stroke-dasharray:none" /><path
     d="M-4.8,1.25 L-4.5,1.25 -4.5,2.25 -4.8,2.25 -4.8,1.25z"
     transform="matrix(1,0,0,-1,5,5)"
     fill="rgb(255,255,255)"
     stroke="rgb(0,0,0)"
     stroke-width="0.0010cm"
     stroke-linecap="round"
     stroke-linejoin="round"
     shaper:cutDepth="0.003"
     id="path16"
     style="fill:none;stroke:#ff0000;stroke-opacity:1;stroke-width:0.00003528;stroke-miterlimit:4;stroke-dasharray:none" /><path
     d="M-4.8,-0.5 L-4.5,-0.5 -4.5,0.5 -4.8,0.5 -4.8,-0.5z"
     transform="matrix(1,0,0,-1,5,5)"
     fill="rgb(255,255,255)"
     stroke="rgb(0,0,0)"
     stroke-width="0.0010cm"
     stroke-linecap="round"
     stroke-linejoin="round"
     shaper:cutDepth="0.003"
     id="path18"
     style="fill:none;stroke:#ff0000;stroke-opacity:1;stroke-width:0.00003528;stroke-miterlimit:4;stroke-dasharray:none" /><path
     d="M-4.8,-4 L-4.5,-4 -4.5,-3 -4.8,-3 -4.8,-4z"
     transform="matrix(1,0,0,-1,5,5)"
     fill="rgb(255,255,255)"
     stroke="rgb(0,0,0)"
     stroke-width="0.0010cm"
     stroke-linecap="round"
     stroke-linejoin="round"
     shaper:cutDepth="0.003"
     id="path20"
     style="fill:none;stroke:#ff0000;stroke-opacity:1;stroke-width:0.00003528;stroke-miterlimit:4;stroke-dasharray:none" /><path
     d="M4.5,4 L4.5,3 4.8,3 4.8,4 4.5,4z"
     transform="matrix(1,0,0,-1,5,5)"
     fill="rgb(255,255,255)"
     stroke="rgb(0,0,0)"
     stroke-width="0.0010cm"
     stroke-linecap="round"
     stroke-linejoin="round"
     shaper:cutDepth="0.003"
     id="path22"
     style="fill:none;stroke:#ff0000;stroke-opacity:1;stroke-width:0.00003528;stroke-miterlimit:4;stroke-dasharray:none" /><path
     d="M4.8,-1.25 L4.5,-1.25 4.5,-2.25 4.8,-2.25 4.8,-1.25z"
     transform="matrix(1,0,0,-1,5,5)"
     fill="rgb(255,255,255)"
     stroke="rgb(0,0,0)"
     stroke-width="0.0010cm"
     stroke-linecap="round"
     stroke-linejoin="round"
     shaper:cutDepth="0.003"
     id="path24"
     style="fill:none;stroke:#ff0000;stroke-opacity:1;stroke-width:0.00003528;stroke-miterlimit:4;stroke-dasharray:none" /><path
     d="M4.8,0.5 L4.5,0.5 4.5,-0.5 4.8,-0.5 4.8,0.5z"
     transform="matrix(1,0,0,-1,5,5)"
     fill="rgb(255,255,255)"
     stroke="rgb(0,0,0)"
     stroke-width="0.0010cm"
     stroke-linecap="round"
     stroke-linejoin="round"
     shaper:cutDepth="0.003"
     id="path26"
     style="fill:none;stroke:#ff0000;stroke-opacity:1;stroke-width:0.00003528;stroke-miterlimit:4;stroke-dasharray:none" /><path
     d="M4.8,2.25 L4.5,2.25 4.5,1.25 4.8,1.25 4.8,2.25z"
     transform="matrix(1,0,0,-1,5,5)"
     fill="rgb(255,255,255)"
     stroke="rgb(0,0,0)"
     stroke-width="0.0010cm"
     stroke-linecap="round"
     stroke-linejoin="round"
     shaper:cutDepth="0.003"
     id="path28"
     style="fill:none;stroke:#ff0000;stroke-opacity:1;stroke-width:0.00003528;stroke-miterlimit:4;stroke-dasharray:none" /><path
     d="M4.8,-3 L4.5,-3 4.5,-4 4.8,-4 4.8,-3z"
     transform="matrix(1,0,0,-1,5,5)"
     fill="rgb(255,255,255)"
     stroke="rgb(0,0,0)"
     stroke-width="0.0010cm"
     stroke-linecap="round"
     stroke-linejoin="round"
     shaper:cutDepth="0.003"
     id="path30"
     style="fill:none;stroke:#ff0000;stroke-opacity:1;stroke-width:0.00003528;stroke-miterlimit:4;stroke-dasharray:none" /><path
     d="M-2.25,4.5 L-1.25,4.5 -1.25,4.8 -2.25,4.8 -2.25,4.5z"
     transform="matrix(1,0,0,-1,5,5)"
     fill="rgb(255,255,255)"
     stroke="rgb(0,0,0)"
     stroke-width="0.0010cm"
     stroke-linecap="round"
     stroke-linejoin="round"
     shaper:cutDepth="0.003"
     id="path32"
     style="fill:none;stroke:#ff0000;stroke-opacity:1;stroke-width:0.00003528;stroke-miterlimit:4;stroke-dasharray:none" /><path
     d="M-4,4.8 L-4,4.5 -3,4.5 -3,4.8 -4,4.8z"
     transform="matrix(1,0,0,-1,5,5)"
     fill="rgb(255,255,255)"
     stroke="rgb(0,0,0)"
     stroke-width="0.0010cm"
     stroke-linecap="round"
     stroke-linejoin="round"
     shaper:cutDepth="0.003"
     id="path34"
     style="fill:none;stroke:#ff0000;stroke-opacity:1;stroke-width:0.00003528;stroke-miterlimit:4;stroke-dasharray:none" /><path
     d="M-4.5,-2.25 L-4.5,-1.25 -4.8,-1.25 -4.8,-2.25 -4.5,-2.25z"
     transform="matrix(1,0,0,-1,5,5)"
     fill="rgb(255,255,255)"
     stroke="rgb(0,0,0)"
     stroke-width="0.0010cm"
     stroke-linecap="round"
     stroke-linejoin="round"
     shaper:cutDepth="0.003"
     id="path36"
     style="fill:none;stroke:#ff0000;stroke-opacity:1;stroke-width:0.00003528;stroke-miterlimit:4;stroke-dasharray:none" /><path
     d="M1.25,4.8 L1.25,4.5 2.25,4.5 2.25,4.8 1.25,4.8z"
     transform="matrix(1,0,0,-1,5,5)"
     fill="rgb(255,255,255)"
     stroke="rgb(0,0,0)"
     stroke-width="0.0010cm"
     stroke-linecap="round"
     stroke-linejoin="round"
     shaper:cutDepth="0.003"
     id="path38"
     style="fill:none;stroke:#ff0000;stroke-opacity:1;stroke-width:0.00003528;stroke-miterlimit:4;stroke-dasharray:none" /><path
     d="M3,4.8 L3,4.5 4,4.5 4,4.8 3,4.8z"
     transform="matrix(1,0,0,-1,5,5)"
     fill="rgb(255,255,255)"
     stroke="rgb(0,0,0)"
     stroke-width="0.0010cm"
     stroke-linecap="round"
     stroke-linejoin="round"
     shaper:cutDepth="0.003"
     id="path40"
     style="fill:none;stroke:#ff0000;stroke-opacity:1;stroke-width:0.00003528;stroke-miterlimit:4;stroke-dasharray:none" /><path
     d="M-0.5,4.8 L-0.5,4.5 0.5,4.5 0.5,4.8 -0.5,4.8z"
     transform="matrix(1,0,0,-1,5,5)"
     fill="rgb(255,255,255)"
     stroke="rgb(0,0,0)"
     stroke-width="0.0010cm"
     stroke-linecap="round"
     stroke-linejoin="round"
     shaper:cutDepth="0.003"
     id="path42"
     style="fill:none;stroke:#ff0000;stroke-opacity:1;stroke-width:0.00003528;stroke-miterlimit:4;stroke-dasharray:none" /></svg>
