<?xml version="1.0" encoding="UTF-8" standalone="no"?>
<!-- Created with Inkscape (http://www.inkscape.org/) -->

<svg
   width="450mm"
   height="300mm"
   viewBox="0 0 450 300"
   version="1.1"
   id="svg833"
   inkscape:version="1.1 (c68e22c387, 2021-05-23)"
   sodipodi:docname="Montagerahmen.svg"
   xmlns:inkscape="http://www.inkscape.org/namespaces/inkscape"
   xmlns:sodipodi="http://sodipodi.sourceforge.net/DTD/sodipodi-0.dtd"
   xmlns="http://www.w3.org/2000/svg"
   xmlns:svg="http://www.w3.org/2000/svg">
  <sodipodi:namedview
     id="namedview835"
     pagecolor="#ffffff"
     bordercolor="#666666"
     borderopacity="1.0"
     inkscape:pageshadow="2"
     inkscape:pageopacity="0.0"
     inkscape:pagecheckerboard="0"
     inkscape:document-units="mm"
     showgrid="false"
     width="450mm"
     inkscape:zoom="0.73228116"
     inkscape:cx="727.17971"
     inkscape:cy="73.742167"
     inkscape:window-width="1920"
     inkscape:window-height="1002"
     inkscape:window-x="-8"
     inkscape:window-y="-8"
     inkscape:window-maximized="1"
     inkscape:current-layer="layer1" />
  <defs
     id="defs830" />
  <g
     inkscape:label="Layer 1"
     inkscape:groupmode="layer"
     id="layer1">
    <path
       id="path2"
       style="fill:none;stroke:#ff0000;stroke-width:0.105833;stroke-miterlimit:4;stroke-dasharray:none;stroke-opacity:1"
       d="m 21.650229,20.782491 v 3.000334 h -5.000211 v 4.749581 h -2.999817 v 4.000272 h 2.999817 v 3.999756 h -2.999817 v 4.000273 h 2.999817 v 3.999756 h -2.999817 v 7.000089 h 2.999817 v 4.750099 h 5.000211 v 2.999817 h 9.999906 v -2.999817 h 7.499801 v 2.999817 h 9.999906 v -2.999817 h 7.500318 v 2.999817 h 9.999906 v -2.999817 h 7.4998 v 2.999817 H 84.15029 v -2.999817 h 7.4998 v 2.999817 H 101.65 v -2.999817 h 8.00002 5.00022 v 2.999817 h 9.9999 v -2.999817 h 7.4998 v 2.999817 h 9.99991 v -2.999817 h 7.50032 v 2.999817 h 9.9999 v -2.999817 h 7.4998 v 2.999817 h 10.00043 v -2.999817 h 7.4998 v 2.999817 h 9.9999 v -2.999817 h 8.00003 5.00021 v 2.999817 h 9.99991 v -2.999817 h 7.4998 v 2.999817 h 9.99991 v -2.999817 h 7.50031 v 2.999817 h 9.99991 v -2.999817 h 7.4998 v 2.999817 h 10.00042 v -2.999817 h 7.4998 v 2.999817 h 9.9999 v -2.999817 h 8.00004 5.00021 v 2.999817 h 9.9999 v -2.999817 h 7.4998 v 2.999817 h 9.99992 v -2.999817 h 7.50031 v 2.999817 h 9.9999 v -2.999817 h 7.4998 v 2.999817 h 9.99992 v -2.999817 h 7.50031 v 2.999817 h 9.9999 v -2.999817 h 8.00004 v -4.750099 h -2.99982 v -7.000089 h 2.99982 v -3.999756 h -2.99982 v -4.000273 h 2.99982 v -3.999756 h -2.99982 v -4.000272 h 2.99982 v -4.749581 h -8.00004 v -3.000334 h -9.9999 v 3.000334 h -7.50031 v -3.000334 h -9.99992 v 3.000334 h -7.4998 v -3.000334 h -9.9999 v 3.000334 h -7.50031 v -3.000334 h -9.99992 v 3.000334 h -7.4998 v -3.000334 h -9.9999 v 3.000334 H 295.65004 287.65 v -3.000334 h -9.9999 v 3.000334 h -7.4998 v -3.000334 h -10.00042 v 3.000334 h -7.4998 v -3.000334 h -9.99991 v 3.000334 h -7.50031 v -3.000334 h -9.99991 v 3.000334 h -7.4998 v -3.000334 h -9.99991 v 3.000334 H 202.65003 194.65 v -3.000334 h -9.9999 v 3.000334 h -7.4998 v -3.000334 h -10.00043 v 3.000334 h -7.4998 v -3.000334 h -9.9999 v 3.000334 h -7.50032 v -3.000334 h -9.99991 v 3.000334 h -7.4998 v -3.000334 h -9.9999 v 3.000334 H 109.65002 101.65 v -3.000334 h -9.99991 v 3.000334 h -7.4998 V 20.782491 H 74.149866 v 3.000334 h -7.4998 V 20.782491 H 56.65016 v 3.000334 h -7.500318 v -3.000334 h -9.999906 v 3.000334 h -7.499801 v -3.000334 z" />
    <path
       d="m 60.55303,70.3977 c 0,0.11381 0.0442,0.21998 0.12443,0.30025 0.16562,0.16605 0.43444,0.16605 0.60049,0 l 2.42362,-2.42363 -2.42362,-2.42362 c -0.16605,-0.16605 -0.43487,-0.16605 -0.60049,0 -0.16095,0.16095 -0.16095,0.43954 0,0.60049 l 1.39846,1.39845 h -4.10067 c -0.234,0 -0.42468,0.19025 -0.42468,0.42467 0,0.23442 0.19068,0.42468 0.42468,0.42468 h 4.10067 l -1.39846,1.39846 c -0.0803,0.0803 -0.12443,0.18643 -0.12443,0.30025 z"
       id="path2-5"
       style="fill:#000000;fill-opacity:1;stroke:none;stroke-width:0.105833;stroke-miterlimit:4;stroke-dasharray:none;stroke-opacity:1"
       sodipodi:nodetypes="scscscscssscss" />
    <path
       d="m 153.55303,70.397703 c 0,0.11381 0.0442,0.21998 0.12443,0.30025 0.16562,0.16605 0.43444,0.16605 0.60049,0 l 2.42363,-2.423628 -2.42363,-2.423623 c -0.16605,-0.16605 -0.43487,-0.16605 -0.60049,0 -0.16095,0.16095 -0.16095,0.43954 0,0.60049 l 1.39846,1.398457 h -4.10067 c -0.234,0 -0.42468,0.19025 -0.42468,0.42467 0,0.23442 0.19068,0.42468 0.42468,0.42468 h 4.10067 l -1.39846,1.398457 c -0.0803,0.0803 -0.12443,0.18643 -0.12443,0.300247 z"
       id="path2-5-45"
       style="fill:#000000;fill-opacity:1;stroke:none;stroke-width:0.105833;stroke-miterlimit:4;stroke-dasharray:none;stroke-opacity:1"
       sodipodi:nodetypes="scscscscssscss" />
    <path
       d="m 153.55303,77.843531 c 0,0.11381 0.044,0.21998 0.1244,0.30025 0.1656,0.16605 0.4344,0.16605 0.6005,0 l 2.42365,-2.423628 -2.42362,-2.423623 c -0.1661,-0.16605 -0.4349,-0.16605 -0.6005,0 -0.1609,0.16095 -0.1609,0.43954 0,0.60049 l 1.39845,1.398457 h -4.10067 c -0.234,0 -0.4247,0.19025 -0.4247,0.42467 0,0.23442 0.1907,0.42468 0.4247,0.42468 h 4.10068 l -1.39845,1.398457 c -0.08,0.0803 -0.1244,0.18643 -0.1244,0.30025 z"
       id="path2-5-4"
       style="fill:#000000;fill-opacity:1;stroke:none;stroke-width:0.105833;stroke-miterlimit:4;stroke-dasharray:none;stroke-opacity:1"
       sodipodi:nodetypes="scscscscssscss" />
    <path
       d="m 246.55303,70.397703 c 0,0.11381 0.0442,0.21998 0.12443,0.30025 0.16562,0.16605 0.43444,0.16605 0.60049,0 l 2.42362,-2.423628 -2.42362,-2.423623 c -0.16605,-0.16605 -0.43487,-0.16605 -0.60049,0 -0.16095,0.16095 -0.16095,0.43954 0,0.60049 l 1.39846,1.398457 h -4.10067 c -0.234,0 -0.42468,0.19025 -0.42468,0.42467 0,0.23442 0.19068,0.42468 0.42468,0.42468 h 4.10067 l -1.39846,1.398457 c -0.0803,0.0803 -0.12443,0.18643 -0.12443,0.300247 z"
       id="path2-5-1"
       style="fill:#000000;fill-opacity:1;stroke:none;stroke-width:0.105833;stroke-miterlimit:4;stroke-dasharray:none;stroke-opacity:1"
       sodipodi:nodetypes="scscscscssscss" />
    <ellipse
       style="fill:#000000;fill-opacity:1;stroke:none;stroke-width:0.105833;stroke-miterlimit:4;stroke-dasharray:none"
       id="path1102"
       cx="271.84052"
       cy="80.363998"
       rx="1.8983793"
       ry="1.8990126" />
    <path
       d="m 339.55303,70.397703 c 0,0.11381 0.0442,0.21998 0.12443,0.30025 0.16562,0.16605 0.43444,0.16605 0.60049,0 l 2.42362,-2.423628 -2.42362,-2.423623 c -0.16605,-0.16605 -0.43487,-0.16605 -0.60049,0 -0.16095,0.16095 -0.16095,0.43954 0,0.60049 l 1.39846,1.398457 h -4.10067 c -0.234,0 -0.42468,0.19025 -0.42468,0.42467 0,0.23442 0.19068,0.42468 0.42468,0.42468 h 4.10067 l -1.39846,1.398457 c -0.0803,0.0803 -0.12443,0.18643 -0.12443,0.300247 z"
       id="path2-5-17"
       style="fill:#000000;fill-opacity:1;stroke:none;stroke-width:0.105833;stroke-miterlimit:4;stroke-dasharray:none;stroke-opacity:1"
       sodipodi:nodetypes="scscscscssscss" />
    <path
       d="m 339.5531,77.843531 c 0,0.11381 0.044,0.21998 0.1244,0.30025 0.1656,0.16605 0.4344,0.16605 0.6005,0 l 2.42365,-2.423628 -2.42362,-2.423623 c -0.1661,-0.16605 -0.4349,-0.16605 -0.6005,0 -0.1609,0.16095 -0.1609,0.43954 0,0.60049 l 1.39845,1.398457 h -4.10067 c -0.234,0 -0.4247,0.19025 -0.4247,0.42467 0,0.23442 0.1907,0.42468 0.4247,0.42468 h 4.10068 l -1.39845,1.398457 c -0.08,0.0803 -0.1244,0.18643 -0.1244,0.30025 z"
       id="path2-5-4-2"
       style="fill:#000000;fill-opacity:1;stroke:none;stroke-width:0.105833;stroke-miterlimit:4;stroke-dasharray:none;stroke-opacity:1"
       sodipodi:nodetypes="scscscscssscss" />
    <rect
       style="fill:none;fill-opacity:1;stroke:#ff0000;stroke-width:0.115239;stroke-miterlimit:4;stroke-dasharray:none;stroke-opacity:1"
       id="rect2951"
       width="390.88641"
       height="83.001465"
       x="5.0598774"
       y="4.0197358" />
    <path
       style="fill:#000000;stroke-width:0.0493929"
       d="m 66.712401,80.141551 c 0.0216,0.0377 0.35114,0.0731 0.91021,0.0978 0.48198,0.0213 0.89189,0.0497 0.91091,0.063 0.0715,0.0502 0.0306,0.16189 -0.0807,0.22001 -0.0634,0.0331 -0.11531,0.0838 -0.11531,0.11263 0,0.0652 0.40042,0.77955 0.46106,0.82253 0.0244,0.0172 0.0869,0.005 0.13895,-0.0266 0.0835,-0.0512 0.1353,-0.0114 0.44277,0.34129 0.19151,0.21963 0.54935,0.55291 0.7952,0.74061 0.40863,0.31198 1.41257,0.92834 1.51211,0.92834 0.0434,0 0.36143,-0.62884 0.3329,-0.65829 -0.009,-0.009 -0.2954,-0.17619 -0.63656,-0.37099 -0.72072,-0.41154 -1.19515,-0.77332 -1.55438,-1.18529 -0.24518,-0.28118 -0.52214,-0.75403 -0.52305,-0.89299 -3.6e-4,-0.0498 0.15893,-0.0661 0.64377,-0.0661 h 0.6442 l 0.013,0.59507 0.013,0.59506 0.42663,0.0151 0.42663,0.0151 v -0.602 -0.60199 l 0.72641,-0.0346 c 0.39954,-0.0191 1.55258,-0.0346 2.56231,-0.0347 l 1.83589,-1.8e-4 -0.0141,-0.25124 -0.0141,-0.25125 -0.24132,-0.016 -0.24133,-0.016 -0.0123,-1.27996 -0.0124,-1.27996 -0.4497,-0.0151 -0.44969,-0.0151 v 1.2657 c 0,1.42282 0.0257,1.32994 -0.36781,1.32994 -0.1598,0 -0.22974,-0.0234 -0.2499,-0.0837 -0.0154,-0.046 -0.028,-0.62591 -0.028,-1.28865 v -1.20483 l -0.39249,-0.0365 c -0.21587,-0.0201 -0.41304,-0.022 -0.43816,-0.004 -0.0281,0.0199 -0.0457,0.51955 -0.0457,1.29771 v 1.26542 l -0.10748,0.0309 c -0.0591,0.017 -0.1992,0.0234 -0.31132,0.0143 l -0.20385,-0.0168 -0.0124,-1.28192 c -0.0143,-1.48355 0.0412,-1.35341 -0.5647,-1.3257 l -0.34538,0.0158 -0.0124,1.28519 -0.0123,1.2852 -0.28743,-0.0158 -0.28744,-0.0158 -0.0124,-1.24052 c -0.009,-0.91147 -0.0275,-1.2515 -0.0692,-1.28189 -0.0312,-0.0228 -0.22764,-0.0417 -0.43647,-0.0422 l -0.37969,-8.3e-4 -0.0123,1.2827 -0.0124,1.28269 h -0.69182 -0.69183 l -0.0136,-0.29602 c -0.0175,-0.37913 0.0954,-0.99943 0.24602,-1.35255 0.167,-0.39145 0.4815,-0.77006 0.86603,-1.04257 0.58285,-0.41306 0.81755,-0.47687 3.13881,-0.85337 1.16359,-0.18873 2.13528,-0.34315 2.15932,-0.34315 0.0241,0 0.0337,-0.0417 0.0214,-0.0926 -0.0123,-0.0509 -0.0361,-0.20889 -0.053,-0.35106 l -0.0307,-0.25849 -0.36295,0.0347 -0.36295,0.0347 -0.0309,-0.18876 c -0.0388,-0.23737 -0.12878,-0.34224 -0.29356,-0.34224 -0.17648,0 -0.35422,0.17373 -0.42026,0.41076 -0.0849,0.30481 -0.12822,0.32166 -0.21036,0.0818 -0.0742,-0.21672 -0.21155,-0.3339 -0.39126,-0.3339 -0.13449,0 -0.30461,0.22008 -0.36329,0.46997 -0.0634,0.27013 -0.11638,0.27555 -0.18835,0.0193 -0.0794,-0.28256 -0.12545,-0.33059 -0.31725,-0.33059 -0.22706,0 -0.31127,0.0815 -0.40929,0.39621 l -0.0822,0.26398 -0.50184,0.0895 c -0.86621,0.15445 -1.68125,0.55746 -2.18523,1.0805 -0.27927,0.28984 -0.28031,0.29036 -0.41794,0.20875 -0.28948,-0.17168 -0.67826,-0.0595 -0.81053,0.23381 -0.14962,0.33182 -0.0326,0.75811 0.25501,0.92865 0.11588,0.0687 0.13931,0.10978 0.11805,0.2069 -0.0514,0.23508 -0.11835,0.85279 -0.11926,1.10098 l -9e-4,0.25125 -0.77255,0.008 c -0.4249,0.004 -0.7933,0.0135 -0.81867,0.0203 -0.0254,0.007 -0.0721,0.0149 -0.10377,0.0185 -0.0628,0.007 -0.08,0.36144 -0.0224,0.46191 z m 10.7098,-0.5616 c 0.0329,0.059 0.13334,0.0793 0.39234,0.0793 h 0.34809 l -0.0121,-1.34881 -0.0121,-1.34881 h -0.36898 -0.36898 l -0.0113,1.26947 c -0.007,0.74418 0.007,1.3023 0.033,1.34881 z"
       id="path966" />
    <text
       xml:space="preserve"
       style="font-size:7.05556px;line-height:1.25;font-family:Bahnschrift;-inkscape-font-specification:Bahnschrift;stroke-width:0.264583"
       x="41.269413"
       y="81.47628"
       id="text1954"><tspan
         sodipodi:role="line"
         id="tspan1952"
         style="font-size:7.05556px;stroke-width:0.264583"
         x="41.269413"
         y="81.47628">Spiegel</tspan></text>
    <rect
       style="fill:#000000;stroke-width:0.105833;stroke-miterlimit:4;stroke-dasharray:none"
       id="rect4440"
       width="0.63229924"
       height="19.42062"
       x="107.5556"
       y="63.862225" />
    <rect
       style="fill:#000000;stroke-width:0.105833;stroke-miterlimit:4;stroke-dasharray:none"
       id="rect4440-8"
       width="0.63229924"
       height="19.42062"
       x="201.33542"
       y="62.822746" />
    <rect
       style="fill:#000000;stroke-width:0.105833;stroke-miterlimit:4;stroke-dasharray:none"
       id="rect4440-8-9"
       width="0.63229924"
       height="19.42062"
       x="294.15463"
       y="62.191151" />
    <text
       xml:space="preserve"
       style="font-size:6.35px;line-height:1.25;font-family:Bahnschrift;-inkscape-font-specification:Bahnschrift;stroke-width:0.264583"
       x="237.56386"
       y="82.457787"
       id="text5250"><tspan
         sodipodi:role="line"
         id="tspan5248"
         style="font-size:6.35px;stroke-width:0.264583"
         x="237.56386"
         y="82.457787">DC Buchse</tspan></text>
    <text
       xml:space="preserve"
       style="font-size:10.5833px;line-height:1.25;font-family:Bahnschrift;-inkscape-font-specification:Bahnschrift;stroke-width:0.264583"
       x="110.71568"
       y="14.452555"
       id="text8116"><tspan
         sodipodi:role="line"
         id="tspan8114"
         style="stroke-width:0.264583"
         x="110.71568"
         y="14.452555">RT-Labor Infinity Mirror Montagelehre </tspan></text>
  </g>
</svg>
