<?xml version="1.0" encoding="UTF-8" standalone="no"?>
<!-- Generator: Fusion 360, Shaper Origin Export Add-In, Version 1.6.10  -->

<svg
   shaper:fusionaddin="version:1.6.10"
   width="9.6cm"
   height="3.85cm"
   version="1.1"
   x="0cm"
   y="0cm"
   viewBox="0 0 9.6 3.85"
   enable-background="new 0 0 9.6 3.85"
   xml:space="preserve"
   id="svg14"
   sodipodi:docname="Seitenwand3.svg"
   inkscape:version="1.1 (c68e22c387, 2021-05-23)"
   xmlns:inkscape="http://www.inkscape.org/namespaces/inkscape"
   xmlns:sodipodi="http://sodipodi.sourceforge.net/DTD/sodipodi-0.dtd"
   xmlns="http://www.w3.org/2000/svg"
   xmlns:svg="http://www.w3.org/2000/svg"
   xmlns:rdf="http://www.w3.org/1999/02/22-rdf-syntax-ns#"
   xmlns:cc="http://creativecommons.org/ns#"
   xmlns:dc="http://purl.org/dc/elements/1.1/"
   xmlns:shaper="http://www.shapertools.com/namespaces/shaper"><metadata
     id="metadata14"><rdf:RDF><cc:Work
         rdf:about=""><dc:format>image/svg+xml</dc:format><dc:type
           rdf:resource="http://purl.org/dc/dcmitype/StillImage" /><dc:title /></cc:Work></rdf:RDF></metadata><defs
     id="defs18"><pattern
       id="EMFhbasepattern"
       patternUnits="userSpaceOnUse"
       width="6"
       height="6"
       x="0"
       y="0" /></defs><sodipodi:namedview
     id="namedview16"
     pagecolor="#ffffff"
     bordercolor="#666666"
     borderopacity="1.0"
     inkscape:pageshadow="2"
     inkscape:pageopacity="0.0"
     inkscape:pagecheckerboard="0"
     inkscape:document-units="cm"
     showgrid="false"
     inkscape:zoom="1.9873717"
     inkscape:cx="154.72697"
     inkscape:cy="13.082606"
     inkscape:window-width="1920"
     inkscape:window-height="1002"
     inkscape:window-x="-8"
     inkscape:window-y="-8"
     inkscape:window-maximized="1"
     inkscape:current-layer="svg14"
     showguides="true"
     inkscape:guide-bbox="true"
     inkscape:lockguides="true" /><path
     d="M 9.6,3.55 H 8.8 v 0.3 h -1 V 3.55 H 7.05 v 0.3 h -1 V 3.55 H 5.3 v 0.3 h -1 V 3.55 H 3.55 v 0.3 h -1 V 3.55 H 1.8 v 0.3 h -1 V 3.55 H 0.3 V 3.075 H 0 v -0.7 h 0.3 v -0.4 H 0 v -0.4 h 0.3 v -0.4 H 0 v -0.4 H 0.3 V 0.3 H 0.8 V 0 h 1 V 0.3 H 2.55 V 0 h 1 V 0.3 H 4.3 V 0 h 1 V 0.3 H 6.05 V 0 h 1 V 0.3 H 7.8 V 0 h 1 V 0.3 H 9.6 V 0.775 H 9.3 v 0.4 h 0.3 v 0.4 H 9.3 v 0.4 h 0.3 v 0.4 H 9.3 v 0.7 h 0.3 z"
     fill="#000000"
     shaper:cutDepth="0.003"
     stroke-linecap="round"
     stroke-linejoin="round"
     id="path2"
     style="fill:none;stroke:#ff0000;stroke-opacity:1;stroke-width:0.0001;stroke-miterlimit:4;stroke-dasharray:none" /><path
     d="m 5.3,1.95 v 0.3 h -1 v -0.3 z"
     fill="#ffffff"
     stroke="#000000"
     stroke-width="0.001cm"
     stroke-linecap="round"
     stroke-linejoin="round"
     shaper:cutDepth="0.003"
     id="path4"
     style="fill:none;stroke:#ff0000;stroke-opacity:1;stroke-width:0.0001;stroke-miterlimit:4;stroke-dasharray:none" /><path
     d="m 7.05,1.95 v 0.3 h -1 v -0.3 z"
     fill="#ffffff"
     stroke="#000000"
     stroke-width="0.001cm"
     stroke-linecap="round"
     stroke-linejoin="round"
     shaper:cutDepth="0.003"
     id="path6"
     style="fill:none;stroke:#ff0000;stroke-opacity:1;stroke-width:0.0001;stroke-miterlimit:4;stroke-dasharray:none" /><path
     d="m 3.55,1.95 v 0.3 h -1 v -0.3 z"
     fill="#ffffff"
     stroke="#000000"
     stroke-width="0.001cm"
     stroke-linecap="round"
     stroke-linejoin="round"
     shaper:cutDepth="0.003"
     id="path8"
     style="fill:none;stroke:#ff0000;stroke-opacity:1;stroke-width:0.0001;stroke-miterlimit:4;stroke-dasharray:none" /><path
     d="m 7.8,2.25 v -0.3 h 1 v 0.3 z"
     fill="#ffffff"
     stroke="#000000"
     stroke-width="0.001cm"
     stroke-linecap="round"
     stroke-linejoin="round"
     shaper:cutDepth="0.003"
     id="path10"
     style="fill:none;stroke:#ff0000;stroke-opacity:1;stroke-width:0.0001;stroke-miterlimit:4;stroke-dasharray:none" /><path
     d="m 1.8,1.95 v 0.3 h -1 v -0.3 z"
     fill="#ffffff"
     stroke="#000000"
     stroke-width="0.001cm"
     stroke-linecap="round"
     stroke-linejoin="round"
     shaper:cutDepth="0.003"
     id="path12"
     style="fill:none;stroke:#ff0000;stroke-opacity:1;stroke-width:0.0001;stroke-miterlimit:4;stroke-dasharray:none" /><rect
     style="fill:none;fill-opacity:0;stroke:#0000ff;stroke-width:0.0001;stroke-opacity:1;stroke-miterlimit:4;stroke-dasharray:none"
     id="rect848"
     width="7.9857984"
     height="0.98579824"
     x="0.80710083"
     y="0.63710088" /><path
     d="m 4.6902979,1.3631753 c 0,0.011381 0.00442,0.021998 0.012443,0.030025 0.016562,0.016605 0.043444,0.016605 0.060049,0 L 5.0051524,1.1508375 4.76279,0.90847517 c -0.016605,-0.016605 -0.043487,-0.016605 -0.060049,0 -0.016095,0.016095 -0.016095,0.043954 0,0.060049 L 4.8425867,1.1083699 H 4.4325199 c -0.0234,0 -0.042468,0.019025 -0.042468,0.042467 0,0.023442 0.019068,0.042468 0.042468,0.042468 H 4.8425867 L 4.702741,1.3331506 c -0.00803,0.00803 -0.012443,0.018643 -0.012443,0.030025 z"
     id="path2-5"
     style="fill:#000000;stroke:none;stroke-width:0.00003528;stroke-opacity:1;stroke-miterlimit:4;stroke-dasharray:none;fill-opacity:1"
     sodipodi:nodetypes="scscscscssscss" /><path
     style="fill:none;stroke:#ff0000;stroke-width:0.0001;stroke-linecap:butt;stroke-linejoin:miter;stroke-miterlimit:4;stroke-dasharray:none;stroke-opacity:1"
     d="m 7.4157951,3.3537007 c -0.6718009,0 -0.6718009,0 -0.6718009,0 0,-0.8899182 0,-0.8899182 0,-0.8899182 0.6718009,0 0.6718009,0 0.6718009,0 0.2442914,0 0.4449592,0.2006678 0.4449592,0.444959 0,0.2442913 -0.2006678,0.4449592 -0.4449592,0.4449592 z"
     id="path1444" /><path
     style="fill:none;stroke:#ff0000;stroke-width:0.0001;stroke-linecap:butt;stroke-linejoin:miter;stroke-miterlimit:4;stroke-dasharray:none;stroke-opacity:1"
     d="m 6.5241455,3.0283705 c -0.071682,0 -0.1353981,-0.063717 -0.1353981,-0.1353982 0,-0.079646 0.063716,-0.1353982 0.1353981,-0.1353982 0.079646,0 0.1353983,0.055752 0.1353983,0.1353982 0,0.071682 -0.055752,0.1353982 -0.1353983,0.1353982 z"
     id="path1448" /><path
     style="fill:none;stroke:#ff0000;stroke-width:0.0001;stroke-linecap:butt;stroke-linejoin:miter;stroke-miterlimit:4;stroke-dasharray:none;stroke-opacity:1"
     d="m 8.0472226,3.0283706 c -0.071682,0 -0.1353982,-0.063717 -0.1353982,-0.1353983 0,-0.079646 0.063716,-0.1353982 0.1353982,-0.1353982 0.071682,0 0.1353982,0.055752 0.1353982,0.1353982 0,0.071682 -0.063717,0.1353983 -0.1353982,0.1353983 z"
     id="path1450" /></svg>
