<?xml version="1.0" encoding="UTF-8" standalone="no"?>
<!-- Generator: Fusion 360, Shaper Origin Export Add-In, Version 1.6.10  -->

<svg
   shaper:fusionaddin="version:1.6.10"
   width="9.6cm"
   height="3.85cm"
   version="1.1"
   x="0cm"
   y="0cm"
   viewBox="0 0 9.6 3.85"
   enable-background="new 0 0 9.6 3.85"
   xml:space="preserve"
   id="svg14"
   sodipodi:docname="Seitenwand.svg"
   inkscape:version="1.1 (c68e22c387, 2021-05-23)"
   xmlns:inkscape="http://www.inkscape.org/namespaces/inkscape"
   xmlns:sodipodi="http://sodipodi.sourceforge.net/DTD/sodipodi-0.dtd"
   xmlns="http://www.w3.org/2000/svg"
   xmlns:svg="http://www.w3.org/2000/svg"
   xmlns:shaper="http://www.shapertools.com/namespaces/shaper"><defs
     id="defs18" /><sodipodi:namedview
     id="namedview16"
     pagecolor="#ffffff"
     bordercolor="#666666"
     borderopacity="1.0"
     inkscape:pageshadow="2"
     inkscape:pageopacity="0.0"
     inkscape:pagecheckerboard="0"
     inkscape:document-units="cm"
     showgrid="false"
     inkscape:zoom="2.9159287"
     inkscape:cx="197.36422"
     inkscape:cy="72.70411"
     inkscape:window-width="1920"
     inkscape:window-height="1002"
     inkscape:window-x="-8"
     inkscape:window-y="-8"
     inkscape:window-maximized="1"
     inkscape:current-layer="svg14" /><path
     d="M 9.6,3.55 H 8.8 v 0.3 h -1 V 3.55 H 7.05 v 0.3 h -1 V 3.55 H 5.3 v 0.3 h -1 V 3.55 H 3.55 v 0.3 h -1 V 3.55 H 1.8 v 0.3 h -1 V 3.55 H 0.3 V 3.075 H 0 v -0.7 h 0.3 v -0.4 H 0 v -0.4 h 0.3 v -0.4 H 0 v -0.4 H 0.3 V 0.3 H 0.8 V 0 h 1 V 0.3 H 2.55 V 0 h 1 V 0.3 H 4.3 V 0 h 1 V 0.3 H 6.05 V 0 h 1 V 0.3 H 7.8 V 0 h 1 V 0.3 H 9.6 V 0.775 H 9.3 v 0.4 h 0.3 v 0.4 H 9.3 v 0.4 h 0.3 v 0.4 H 9.3 v 0.7 h 0.3 z"
     fill="#000000"
     shaper:cutDepth="0.003"
     stroke-linecap="round"
     stroke-linejoin="round"
     id="path2"
     style="fill:none;stroke:#ff0000;stroke-opacity:1;stroke-width:0.01058333;stroke-miterlimit:4;stroke-dasharray:none" /><path
     d="m 5.3,1.95 v 0.3 h -1 v -0.3 z"
     fill="#ffffff"
     stroke="#000000"
     stroke-width="0.001cm"
     stroke-linecap="round"
     stroke-linejoin="round"
     shaper:cutDepth="0.003"
     id="path4"
     style="fill:none;stroke:#ff0000;stroke-opacity:1;stroke-width:0.01058333;stroke-miterlimit:4;stroke-dasharray:none" /><path
     d="m 7.05,1.95 v 0.3 h -1 v -0.3 z"
     fill="#ffffff"
     stroke="#000000"
     stroke-width="0.001cm"
     stroke-linecap="round"
     stroke-linejoin="round"
     shaper:cutDepth="0.003"
     id="path6"
     style="fill:none;stroke:#ff0000;stroke-opacity:1;stroke-width:0.01058333;stroke-miterlimit:4;stroke-dasharray:none" /><path
     d="m 3.55,1.95 v 0.3 h -1 v -0.3 z"
     fill="#ffffff"
     stroke="#000000"
     stroke-width="0.001cm"
     stroke-linecap="round"
     stroke-linejoin="round"
     shaper:cutDepth="0.003"
     id="path8"
     style="fill:none;stroke:#ff0000;stroke-opacity:1;stroke-width:0.01058333;stroke-miterlimit:4;stroke-dasharray:none" /><path
     d="m 7.8,2.25 v -0.3 h 1 v 0.3 z"
     fill="#ffffff"
     stroke="#000000"
     stroke-width="0.001cm"
     stroke-linecap="round"
     stroke-linejoin="round"
     shaper:cutDepth="0.003"
     id="path10"
     style="fill:none;stroke:#ff0000;stroke-opacity:1;stroke-width:0.01058333;stroke-miterlimit:4;stroke-dasharray:none" /><path
     d="m 1.8,1.95 v 0.3 h -1 v -0.3 z"
     fill="#ffffff"
     stroke="#000000"
     stroke-width="0.001cm"
     stroke-linecap="round"
     stroke-linejoin="round"
     shaper:cutDepth="0.003"
     id="path12"
     style="fill:none;stroke:#ff0000;stroke-opacity:1;stroke-width:0.01058333;stroke-miterlimit:4;stroke-dasharray:none" /></svg>
