<?xml version="1.0" encoding="UTF-8" standalone="no"?>
<!-- Generator: Fusion 360, Shaper Origin Export Add-In, Version 1.6.10  -->

<svg
   shaper:fusionaddin="version:1.6.10"
   width="9.6cm"
   height="9.6cm"
   version="1.1"
   x="0cm"
   y="0cm"
   viewBox="0 0 9.6 9.6"
   enable-background="new 0 0 9.6 9.6"
   xml:space="preserve"
   id="svg4"
   sodipodi:docname="Zwischenboden.svg"
   inkscape:version="1.1 (c68e22c387, 2021-05-23)"
   xmlns:inkscape="http://www.inkscape.org/namespaces/inkscape"
   xmlns:sodipodi="http://sodipodi.sourceforge.net/DTD/sodipodi-0.dtd"
   xmlns="http://www.w3.org/2000/svg"
   xmlns:svg="http://www.w3.org/2000/svg"
   xmlns:shaper="http://www.shapertools.com/namespaces/shaper"><defs
     id="defs8" /><sodipodi:namedview
     id="namedview6"
     pagecolor="#ffffff"
     bordercolor="#666666"
     borderopacity="1.0"
     inkscape:pageshadow="2"
     inkscape:pageopacity="0.0"
     inkscape:pagecheckerboard="0"
     inkscape:document-units="cm"
     showgrid="false"
     showguides="true"
     inkscape:guide-bbox="true"
     inkscape:zoom="1.6019467"
     inkscape:cx="192.5782"
     inkscape:cy="176.66006"
     inkscape:window-width="1920"
     inkscape:window-height="1002"
     inkscape:window-x="-8"
     inkscape:window-y="-8"
     inkscape:window-maximized="1"
     inkscape:current-layer="svg4" /><path
     d="M 8.8,9.6 V 9.3 L 9.3,8.8 h 0.3 v -1 H 9.3 V 7.05 h 0.3 v -1 H 9.3 V 5.3 h 0.3 v -1 H 9.3 V 3.55 h 0.3 v -1 H 9.3 V 1.8 h 0.3 v -1 H 9.3 V 0.3 H 8.8 V 0 h -1 V 0.3 H 7.05 V 0 h -1 V 0.3 H 5.3 V 0 h -1 V 0.3 H 3.55 V 0 h -1 V 0.3 H 1.8 V 0 h -1 V 0.3 H 0.3 V 0.8 H 0 v 1 H 0.3 V 2.55 H 0 v 1 H 0.3 V 4.3 H 0 v 1 H 0.3 V 6.05 H 0 v 1 H 0.3 V 7.8 H 0 v 1 h 0.3 v 0.5 h 0.5 v 0.3 h 1 V 9.3 h 0.75 v 0.3 h 1 V 9.3 H 4.3 v 0.3 h 1 V 9.3 h 0.75 v 0.3 h 1 V 9.3 H 7.8 v 0.3 z"
     fill="rgb(0,0,0)"
     shaper:cutDepth="0.003"
     stroke-linecap="round"
     stroke-linejoin="round"
     id="path2"
     style="fill:none;stroke:#ff0000;stroke-width:0.00002646;stroke-miterlimit:4;stroke-dasharray:none;stroke-opacity:1" /><path
     style="fill:#000000;stroke-width:0.0255059"
     d="m 5.3576334,7.9493962 c 0.01818,-0.011955 0.03526,-0.1941831 0.04718,-0.5033477 0.01027,-0.2665351 0.02395,-0.4932173 0.03039,-0.5037385 0.02421,-0.03954 0.07806,-0.016892 0.106086,0.044635 0.01598,0.035071 0.04042,0.063765 0.05431,0.063765 0.03144,0 0.3759,-0.2214328 0.396625,-0.2549668 0.0083,-0.013503 0.0026,-0.048074 -0.01281,-0.076837 -0.02471,-0.046174 -0.0055,-0.074826 0.164573,-0.2448535 0.105904,-0.1059079 0.266609,-0.3037965 0.357117,-0.4397514 0.150435,-0.2259722 0.447644,-0.781157 0.447644,-0.8361983 0,-0.024012 -0.303226,-0.1998746 -0.317425,-0.184098 -0.0044,0.00494 -0.08496,0.1633584 -0.17889,0.3520199 -0.198444,0.3985613 -0.372894,0.660925 -0.571544,0.8595758 -0.135586,0.1355861 -0.363593,0.2887458 -0.430601,0.2892491 -0.024,1.786e-4 -0.03188,-0.087886 -0.03188,-0.3560058 V 5.802599 l 0.28694,-0.00721 0.286939,-0.00721 0.0073,-0.2359282 0.0073,-0.2359281 h -0.290284 -0.290279 l -0.01667,-0.4017105 c -0.0092,-0.2209434 -0.0167,-0.858578 -0.01675,-1.4169658 l -8.5e-5,-1.0152507 -0.121151,0.00778 -0.12115,0.00778 -0.0077,0.1334549 -0.0077,0.1334548 -0.6171958,0.00683 -0.617196,0.00683 -0.00729,0.2486809 -0.00729,0.248681 h 0.6103167 c 0.6860801,0 0.6412951,-0.014209 0.6412951,0.2034031 0,0.088371 -0.01127,0.1270472 -0.04035,0.1381957 -0.02219,0.00851 -0.3018116,0.015482 -0.6213826,0.015482 H 3.8950571 l -0.017611,0.2170487 c -0.0097,0.1193769 -0.010596,0.2284138 -0.00203,0.2423044 0.00958,0.015533 0.2505282,0.025256 0.6257542,0.025256 h 0.6101841 l 0.01491,0.059434 c 0.0082,0.032688 0.01127,0.1101619 0.0069,0.1721638 l -0.0081,0.1127301 -0.6181412,0.00683 c -0.7153643,0.0079 -0.6526127,-0.022766 -0.6392517,0.31228 l 0.00762,0.1909926 0.6197184,0.00683 0.6197185,0.00683 -0.0076,0.1589548 -0.0076,0.1589547 -0.5981767,0.00686 c -0.4395087,0.00504 -0.6034677,0.015189 -0.6181225,0.038258 -0.010992,0.017271 -0.020123,0.125886 -0.020338,0.2413683 l -3.822e-4,0.2099689 0.6185133,0.00683 0.6185131,0.00683 v 0.3825789 0.3825859 l -0.142744,0.00753 C 4.773977,6.5960422 4.4748685,6.5336445 4.3045977,6.450338 4.1158411,6.3579845 3.9332751,6.1840673 3.801872,5.9714212 3.6026965,5.6491018 3.5719279,5.5193124 3.3903779,4.2356486 3.2993705,3.5921813 3.2249126,3.054831 3.2249126,3.0415368 c 0,-0.013297 -0.020087,-0.018623 -0.044637,-0.011852 -0.024549,0.00678 -0.1007267,0.01997 -0.1692809,0.029312 l -0.1246459,0.016978 0.016737,0.2007111 0.016737,0.200711 -0.091015,0.017081 c -0.1144624,0.021475 -0.1650287,0.071215 -0.1650287,0.1623435 0,0.097591 0.083773,0.1958845 0.198068,0.2324042 0.1469789,0.046963 0.1551015,0.070904 0.039459,0.1163288 -0.1045025,0.04105 -0.1610103,0.1169858 -0.1610103,0.2163701 0,0.074372 0.1061263,0.1684502 0.2266196,0.200897 0.1302553,0.035074 0.1328717,0.064359 0.00932,0.1041585 -0.1362501,0.043885 -0.1594106,0.069378 -0.1594106,0.1754425 0,0.1255627 0.039309,0.1721349 0.1910519,0.2263403 l 0.127288,0.045476 0.043151,0.2775183 c 0.074478,0.4790162 0.268808,0.9297384 0.5210174,1.208439 0.139761,0.1544393 0.1400104,0.1550173 0.1006562,0.2311216 -0.082784,0.1600849 -0.028705,0.3750827 0.1127456,0.4482293 0.1599989,0.082739 0.3655562,0.018003 0.4477915,-0.1410236 0.033134,-0.064078 0.052938,-0.077037 0.099765,-0.065283 0.1133563,0.02845 0.4112138,0.065453 0.530892,0.065952 l 0.121151,5.052e-4 0.0039,0.4272212 c 0.0021,0.2349714 0.0065,0.4386985 0.0098,0.4527267 0.0033,0.014019 0.0072,0.039853 0.0089,0.057387 0.0032,0.034722 0.174286,0.044217 0.222735,0.012368 z M 5.0868284,2.0268441 c 0.02847,-0.018206 0.03826,-0.073737 0.03826,-0.2169662 v -0.192497 l -0.6503958,0.00667 -0.6503951,0.00667 v 0.2040459 0.204046 l 0.6121368,0.00624 c 0.3588407,0.00366 0.6279681,-0.00389 0.6503961,-0.018227 z"
     id="path966" /></svg>
